<?xml version="1.0" encoding="UTF-8"?>
<!DOCTYPE svg PUBLIC "-//W3C//DTD SVG 1.1//EN" "http://www.w3.org/Graphics/SVG/1.1/DTD/svg11.dtd">
<!-- Creator: CorelDRAW X8 -->
<svg xmlns="http://www.w3.org/2000/svg" xml:space="preserve" width="36.5492mm" height="34.5369mm" version="1.1" style="shape-rendering:geometricPrecision; text-rendering:geometricPrecision; image-rendering:optimizeQuality; fill-rule:evenodd; clip-rule:evenodd"
viewBox="0 0 2684 2537"
 xmlns:xlink="http://www.w3.org/1999/xlink">
 <defs>
  <style type="text/css">
   <![CDATA[
    .str1 {stroke:#21443A;stroke-width:14.689}
    .str0 {stroke:#546C4A;stroke-width:14.689}
    .fil0 {fill:#21443A}
    .fil1 {fill:#E87654}
   ]]>
  </style>
 </defs>
 <g id="Camada_x0020_1">
  <metadata id="CorelCorpID_0Corel-Layer"/>
  <g id="_2510904114736">
   <g>
    <polygon class="fil0 str0" points="1714,986 1460,1026 1420,773 1547,753 1567,880 1694,860 "/>
    <path class="fil1" d="M1407 689l127 -20c-7,-81 -77,-291 111,-446 271,-225 672,74 524,398 -91,201 -275,202 -390,225l20 126c34,-5 108,-16 143,-23 414,-82 533,-597 206,-843 -113,-85 -181,-109 -299,-106 -85,2 -179,21 -274,93 -97,73 -160,177 -181,285 -15,78 -1,251 13,311z"/>
   </g>
   <g>
    <polygon class="fil0 str0" points="1677,1476 1563,1246 1793,1133 1850,1248 1735,1304 1792,1420 "/>
    <path class="fil1" d="M1870 1095l56 115c75,-30 255,-159 459,-26 296,193 128,665 -225,619 -219,-28 -274,-203 -330,-305l-115 56c15,30 48,98 64,129 202,371 729,333 867,-52 48,-135 50,-206 12,-318 -27,-80 -73,-164 -170,-234 -98,-71 -216,-100 -326,-89 -78,9 -240,74 -292,105z"/>
   </g>
   <g>
    <polygon class="fil0 str1" points="1162,1572 1341,1388 1525,1566 1435,1658 1343,1569 1253,1661 "/>
    <path class="fil1" d="M1586 1626l-90 92c54,60 235,187 178,424 -83,343 -583,343 -659,-5 -46,-216 100,-327 178,-414l-92 -89c-23,24 -76,78 -100,104 -282,314 -70,797 340,799 142,0 210,-22 303,-95 67,-52 130,-124 164,-238 33,-116 22,-238 -26,-337 -34,-71 -150,-202 -196,-241z"/>
   </g>
   <g>
    <polygon class="fil0 str0" points="1266,774 1229,1029 975,991 994,864 1121,883 1139,756 "/>
    <path class="fil1" d="M891 979l18 -127c-78,-18 -300,-14 -392,-239 -134,-326 271,-620 536,-382 165,147 111,323 99,439l126 18c5,-33 17,-108 21,-142 44,-420 -412,-687 -744,-448 -115,83 -158,141 -190,254 -23,82 -33,177 7,289 41,114 121,206 219,258 69,38 239,76 300,80z"/>
   </g>
   <g>
    <polygon class="fil0 str0" points="899,1123 1125,1246 1002,1471 889,1409 951,1297 838,1235 "/>
    <path class="fil1" d="M961 1546l-113 -62c-44,68 -117,276 -361,284 -352,13 -486,-470 -171,-636 195,-102 341,9 446,61l61 -112c-29,-16 -95,-53 -126,-69 -378,-188 -787,146 -679,541 37,137 77,197 171,266 69,51 155,93 274,95 121,1 235,-42 318,-115 59,-52 154,-198 180,-253z"/>
   </g>
  </g>
 </g>
</svg>
